<?xml version="1.0" encoding="UTF-8"?>
<svg version="1.1" xmlns="http://www.w3.org/2000/svg" width="298" height="300">
<path d="M0 0 C0.6712793 0.18191895 1.34255859 0.36383789 2.03417969 0.55126953 C35.3076793 9.83631843 62.78174881 33.2788751 79.8125 62.9375 C96.14666135 92.43848422 100.04973318 129.04717158 90.7578125 161.40625 C89.0765428 167.0308161 87.24784194 172.57203144 85 178 C85.99 177.67 86.98 177.34 88 177 C95.31600273 176.26272841 100.55581831 177.72997116 106.75 181.8125 C111.13808024 186.07868912 112.26397823 189.99037211 112.6875 196 C112.47772247 204.38156579 108.61963909 210.33627282 104 217 C103.30261719 218.00933594 102.60523438 219.01867187 101.88671875 220.05859375 C73.16032459 259.60333744 33.51206056 282.80995409 -14.67578125 290.59375 C-57.75391508 295.5867634 -101.88668213 283.75821666 -136.28417969 257.37255859 C-140.91818958 253.66561443 -145.22108417 249.60165165 -149.47705078 245.47167969 C-150.92604109 244.07146911 -152.39802871 242.6951732 -153.87109375 241.3203125 C-160.77460449 234.72036039 -166.41377714 227.57331395 -171.81347656 219.71582031 C-172.85738301 218.20623708 -173.93770307 216.72197226 -175.0234375 215.2421875 C-179.32616043 208.95980801 -180.06833392 203.52194288 -179 196 C-177.27536767 190.52175613 -173.68838013 187.1417983 -169 184 C-164.80396364 182.21279933 -161.71512722 181.90861752 -157.2734375 182.46484375 C-156.47083496 182.56273193 -155.66823242 182.66062012 -154.84130859 182.76147461 C-154.23367676 182.84018799 -153.62604492 182.91890137 -153 183 C-153.45890625 181.83726562 -153.9178125 180.67453125 -154.390625 179.4765625 C-157.58211939 171.21694024 -160.48056881 163.03657576 -162.375 154.375 C-162.53000977 153.66682129 -162.68501953 152.95864258 -162.84472656 152.22900391 C-169.53650484 119.75330088 -163.3413404 84.5110688 -145.8046875 56.3671875 C-125.04705875 25.49114474 -96.4070858 5.80634882 -60.09765625 -2.421875 C-40.40877667 -6.09647043 -19.28130205 -5.36473356 0 0 Z M-133 45 C-150.59735164 65.79687012 -160.68710121 92.88043434 -162 120 C-162.061875 121.23169922 -162.061875 121.23169922 -162.125 122.48828125 C-162.73727616 147.70640559 -156.07261223 176.99050073 -140 197 C-136.06516343 200.61220527 -133.4352161 201.7418499 -128.2109375 202.09765625 C-123.56280544 201.89235006 -120.86103487 199.90887014 -117.75 196.625 C-115.17379081 192.76068621 -113.90245665 190.43748091 -114.22265625 185.71875 C-115.07449076 181.64364219 -116.41982936 179.30017564 -118.75 175.875 C-131.68754671 155.98731647 -135.11848049 129.86500018 -130.875 106.6875 C-125.26382217 80.92827899 -111.18094889 58.57721924 -89 44 C-78.69884299 37.6921183 -68.32219182 33.28668835 -56.5 30.8125 C-55.67757812 30.63525391 -54.85515625 30.45800781 -54.0078125 30.27539062 C-52.00636525 29.84484674 -50.00334121 29.42164339 -48 29 C-48.83447997 26.74644234 -48.83447997 26.74644234 -51.375 26.1875 C-54.81560536 24.63103567 -55.58612651 23.49747653 -57 20 C-57.573078 15.67443863 -57.45496418 12.1254377 -55.8125 8.0625 C-53.59653179 5.540881 -52.27812043 4.74502737 -49 4 C-42.78571429 4.21428571 -42.78571429 4.21428571 -40.125 6.875 C-37.85159287 11.16921346 -37.49647758 15.22586148 -38 20 C-39.125 22.875 -39.125 22.875 -41 25 C-44.1875 26.3125 -44.1875 26.3125 -47 27 C-47 27.33 -47 27.66 -47 28 C-46.33693848 28.0093457 -45.67387695 28.01869141 -44.99072266 28.02832031 C-23.93993769 28.39922722 -7.01614783 31.0121583 12 40 C13.66053039 40.68180718 15.32467562 41.355399 17 42 C17.45375 41.505 17.9075 41.01 18.375 40.5 C20 39 20 39 22 39 C25.24571282 32.79081025 25.66944259 26.94170563 26 20 C28.31 21.32 30.62 22.64 33 24 C33 24.66 33 25.32 33 26 C32.01 26.33 31.02 26.66 30 27 C30 28.98 30 30.96 30 33 C32.55503957 31.71711243 32.55503957 31.71711243 35 30 C35 29.01 35 28.02 35 27 C37.31 27.66 39.62 28.32 42 29 C42 30.32 42 31.64 42 33 C41.195625 33.061875 40.39125 33.12375 39.5625 33.1875 C34.83356326 34.26602943 30.77131606 35.89421031 27 39 C25.76760129 42.53540765 25.76760129 42.53540765 26 46 C26 46.99 26 47.98 26 49 C28.01662841 51.01958102 30.03205586 52.88985403 32.1875 54.75 C36.88826946 58.81666343 40.54101682 62.81478228 44 68 C44.33 67.34 44.66 66.68 45 66 C45.969375 65.9175 46.93875 65.835 47.9375 65.75 C53.25700521 65.14300252 57.83832398 62.24869408 62 59 C63.30099261 56.91860379 63.30099261 56.91860379 64 55 C67.21880117 58.7935871 69.6163187 62.65829477 72 67 C69.51382153 69.48617847 67.3192387 69.8935871 64 71 C59.87278298 72.98885318 59.87278298 72.98885318 58 77 C54.9375 78.1875 54.9375 78.1875 52 79 C52.66 80.98 53.32 82.96 54 85 C54.33 84.01 54.66 83.02 55 82 C55.67417969 82.21527344 56.34835938 82.43054688 57.04296875 82.65234375 C60.90179632 83.10602361 63.78648149 81.95329824 67.3125 80.5625 C67.95767578 80.31951172 68.60285156 80.07652344 69.26757812 79.82617188 C70.84931979 79.22862502 72.42528374 78.61582273 74 78 C74 77.01 74 76.02 74 75 C74.99 75.33 75.98 75.66 77 76 C79.34551123 80.93791838 79.2134222 85.66444505 79 91 C78.33613281 90.91878906 77.67226563 90.83757812 76.98828125 90.75390625 C74.18049571 90.55305736 71.77469852 90.49589447 69 91 C66.56009168 93.13961191 65.56207511 95.08412645 64 98 C64.67672124 100.0122481 64.67672124 100.0122481 66 102 C68.09289073 102.91368592 68.09289073 102.91368592 70.5703125 103.265625 C71.46621094 103.43320313 72.36210937 103.60078125 73.28515625 103.7734375 C74.22230469 103.93070312 75.15945313 104.08796875 76.125 104.25 C77.06988281 104.42273438 78.01476562 104.59546875 78.98828125 104.7734375 C81.32318106 105.19796474 83.65977909 105.60605754 86 106 C85.73852539 107.86621094 85.73852539 107.86621094 85 110 C83.32592773 111.18847656 83.32592773 111.18847656 81.18359375 112.140625 C80.41982422 112.48867187 79.65605469 112.83671875 78.86914062 113.1953125 C78.06669922 113.54335937 77.26425781 113.89140625 76.4375 114.25 C75.63119141 114.61351563 74.82488281 114.97703125 73.99414062 115.3515625 C72.00156571 116.24763169 70.0039082 117.12964442 68 118 C68 118.99 68 119.98 68 121 C66.68 121 65.36 121 64 121 C64 118.69 64 116.38 64 114 C63.67 114 63.34 114 63 114 C62.67 124.23 62.34 134.46 62 145 C62.66 143.68 63.32 142.36 64 141 C66 141 66 141 68.23828125 143.23046875 C69.14964844 144.14441406 70.06101563 145.05835938 71 146 C73.02516984 147.4896307 75.08891313 148.92821475 77.1875 150.3125 C78.23292969 151.00988281 79.27835938 151.70726562 80.35546875 152.42578125 C82.77349081 154.17050206 82.77349081 154.17050206 85 154 C84.67 155.32 84.34 156.64 84 158 C83.42032471 158.01981934 82.84064941 158.03963867 82.2434082 158.06005859 C79.59934063 158.15572601 76.9560183 158.26523453 74.3125 158.375 C72.94448242 158.42140625 72.94448242 158.42140625 71.54882812 158.46875 C66.98796369 158.66776954 63.13809725 158.85690122 59 161 C58.67 159.68 58.34 158.36 58 157 C57.55269531 158.05058594 57.10539063 159.10117188 56.64453125 160.18359375 C56.03473614 161.60194202 55.42399593 163.01988418 54.8125 164.4375 C54.49732422 165.17162109 54.18214844 165.90574219 53.85742188 166.66210938 C52.1305654 170.62372128 50.29826761 174.32924582 48 178 C46.29544662 180.93811175 45.69760179 182.84802017 46 186.25 C47.44045904 191.65172141 48.62053311 193.9992103 53.1875 197.3125 C57.34614625 199.46201125 60.3568118 199.5896112 65 199 C75.28331177 194.26967659 80.0350435 180.98017846 84 171 C95.86159224 138.73894835 94.6221473 104.21412952 80.48486328 72.96459961 C76.44074068 64.30786371 72.15224015 56.36456003 66 49 C65.13604489 47.9250204 64.27280614 46.8494648 63.41015625 45.7734375 C42.94542853 20.58635952 14.95503914 5.11586051 -17 0 C-17.75925781 -0.13148437 -18.51851562 -0.26296875 -19.30078125 -0.3984375 C-63.12421578 -6.69539703 -104.16991716 13.0597529 -133 45 Z M-50.6875 8.0625 C-52.54177268 10.79975968 -52.87266615 12.68931999 -53 16 C-52.03646571 19.83261263 -52.03646571 19.83261263 -50 23 C-47.52429495 24.23000198 -47.52429495 24.23000198 -45 24 C-42.3065124 21.3065124 -42.21075108 19.79351936 -42 16 C-42.62801329 13.13730607 -43.37689076 10.45517246 -45 8 C-47.9322892 6.81233691 -47.9322892 6.81233691 -50.6875 8.0625 Z M-107.63867188 64.41357422 C-120.84170293 79.79974635 -128.81633849 99.77014879 -130 120 C-130.05285156 120.76828125 -130.10570312 121.5365625 -130.16015625 122.328125 C-130.83715359 141.51952774 -124.99426228 159.2451532 -115.76953125 175.8203125 C-115.18558594 176.86960938 -114.60164063 177.91890625 -114 179 C-113.5978125 179.7115625 -113.195625 180.423125 -112.78125 181.15625 C-110.85200872 185.70925941 -111.55157217 190.70454183 -113.125 195.25 C-116.26688928 199.85810428 -118.63799421 202.41779423 -124.05859375 203.75390625 C-127.03565882 204.25534359 -129.99897476 204.67464613 -133 205 C-126.57382861 216.94693719 -114.20234969 225.80565784 -103 233 C-101.35257813 234.06347656 -101.35257813 234.06347656 -99.671875 235.1484375 C-71.36636572 252.32922337 -36.83838587 256.91140312 -4.75268555 249.47607422 C19.05585032 243.45732329 39.05794545 230.98483679 56.4375 213.8125 C57.04142578 213.21800049 57.64535156 212.62350098 58.26757812 212.01098633 C61.37391502 208.88139578 63.92840921 205.94270505 66 202 C65.01 202.061875 64.02 202.12375 63 202.1875 C57.13306578 202.16374723 52.57847033 200.33826832 48.125 196.5625 C44.25522542 191.89600712 43.32644666 188.18790647 43.421875 182.16796875 C44.23150216 177.73143073 46.34869624 174.47873135 48.71875 170.68823242 C61.00289706 150.61024822 62.60340607 125.54451536 57.49169922 103.00341797 C51.33363226 77.91250563 35.26938107 57.06665672 13.33984375 43.71875 C-27.39584548 20.16179688 -76.50176559 30.14304614 -107.63867188 64.41357422 Z M61 65 C61.33 65.99 61.66 66.98 62 68 C63.65 67.34 65.3 66.68 67 66 C66.67 65.01 66.34 64.02 66 63 C63.67642489 62.81509993 63.67642489 62.81509993 61 65 Z M52 71 C52.99 72.485 52.99 72.485 54 74 C55.32 73.67 56.64 73.34 58 73 C58 71.35 58 69.7 58 68 C55.23776722 68 54.10718546 69.31425163 52 71 Z M51 77 C52 79 52 79 52 79 Z M75 82 C73.02 82.66 71.04 83.32 69 84 C69.33 84.99 69.66 85.98 70 87 C70.99 87.33 71.98 87.66 73 88 C73.99 87.34 74.98 86.68 76 86 C75.67 84.68 75.34 83.36 75 82 Z M55 85 C56 87 56 87 56 87 Z M64 86 C63.360625 86.66 62.72125 87.32 62.0625 88 C60 90 60 90 57 90 C57.33 91.65 57.66 93.3 58 95 C59.15224028 94.07038578 60.29659176 93.1309875 61.4375 92.1875 C62.07558594 91.66542969 62.71367187 91.14335938 63.37109375 90.60546875 C65.2548275 88.99165589 65.2548275 88.99165589 66 86 C65.34 86 64.68 86 64 86 Z M56 88 C57 90 57 90 57 90 Z M59 96 C60 98 60 98 60 98 Z M60 98 C60.33 100.97 60.66 103.94 61 107 C61.33 107 61.66 107 62 107 C62.16677282 103.58343976 62.16677282 103.58343976 62 100 C61.34 99.34 60.68 98.68 60 98 Z M66 106 C65.01 106.99 64.02 107.98 63 109 C62.67 108.34 62.34 107.68 62 107 C62 108.98 62 110.96 62 113 C63.99954746 113.04254356 66.00041636 113.04080783 68 113 C69.29633621 111.93354885 69.29633621 111.93354885 69.0625 109.4375 C69.041875 108.633125 69.02125 107.82875 69 107 C68.01 106.67 67.02 106.34 66 106 Z M73 107 C73 107.99 73 108.98 73 110 C74.32 109.34 75.64 108.68 77 108 C75.68 107.67 74.36 107.34 73 107 Z M61 145 C60.67 147.31 60.34 149.62 60 152 C61.32 152 62.64 152 64 152 C64 152.66 64 153.32 64 154 C64.99 154 65.98 154 67 154 C67.33 152.35 67.66 150.7 68 149 C65.50907189 147.75453595 64.58919267 148.2232422 62 149 C61.67 147.68 61.34 146.36 61 145 Z M71 151 C71 151.99 71 152.98 71 154 C72.65 154 74.3 154 76 154 C74.62514468 152.45833358 74.62514468 152.45833358 73 151 C72.34 151 71.68 151 71 151 Z M59 153 C60 157 60 157 60 157 Z M81.375 184.9375 C78.46907749 188.6846106 76.27875568 192.69109387 73.9453125 196.8125 C67.83902543 206.81798243 59.26683048 215.73316952 51 224 C56.28 224 61.56 224 67 224 C67 224.99 67 225.98 67 227 C68.53448205 229.11775458 68.53448205 229.11775458 70.5 231.1875 C71.1496875 231.90292969 71.799375 232.61835938 72.46875 233.35546875 C72.9740625 233.89816406 73.479375 234.44085938 74 235 C73.030625 235.309375 72.06125 235.61875 71.0625 235.9375 C68.15934208 236.69523342 68.15934208 236.69523342 67 238 C64.0625 238.1875 64.0625 238.1875 61 238 C59 236 59 236 58 233 C57.01 233.66 56.02 234.32 55 235 C56.55701931 239.67105792 59.08447373 243.08705685 62 247 C59.97954558 246.39816251 57.97888961 245.72693904 56 245 C55.67 244.34 55.34 243.68 55 243 C53.515 243.495 53.515 243.495 52 244 C52.26676204 245.98491642 52.26676204 245.98491642 53 248 C54.485 248.495 54.485 248.495 56 249 C56.495 249.99 56.495 249.99 57 251 C54.03 250.01 51.06 249.02 48 248 C46.63716826 251.75979645 46.63716826 251.75979645 47.9375 254.25 C48.288125 254.8275 48.63875 255.405 49 256 C47.7934375 255.7215625 47.7934375 255.7215625 46.5625 255.4375 C45.716875 255.293125 44.87125 255.14875 44 255 C43.505 255.495 43.505 255.495 43 256 C40.32941149 256.14115161 37.67567762 256.04247107 35 256 C35 254.02 35 252.04 35 250 C33.02 250.495 33.02 250.495 31 251 C31.50802768 255.36903809 32.34274053 258.45698737 35 262 C35.680625 262.33 36.36125 262.66 37.0625 263 C39.77883463 264.40197916 39.99265112 266.20628578 41 269 C54.79317728 262.07526202 66.48928138 253.12871586 77.52880859 242.41992188 C78.87369879 241.12189974 80.2423658 239.8486296 81.61328125 238.578125 C91.91202472 228.7885698 108.13212116 211.49939459 109.25 196.6875 C108.87093263 191.09625624 107.1896318 188.1896318 103.25 184.25 C95.41775977 178.82767984 88.87639216 179.40075816 81.375 184.9375 Z M-172.8125 192 C-176.07163477 196.46967054 -176.72607124 200.56707109 -176 206 C-174.75650062 208.57335289 -173.62356496 210.58545815 -172 212.875 C-171.59136719 213.47795898 -171.18273437 214.08091797 -170.76171875 214.70214844 C-164.55264527 223.74182895 -157.45537593 231.97215771 -150 240 C-149.4225 240.64324219 -148.845 241.28648437 -148.25 241.94921875 C-132.83666885 258.36028785 -112.09452567 270.55487329 -91 278 C-89.25589844 278.65742188 -89.25589844 278.65742188 -87.4765625 279.328125 C-46.58085244 294.05412906 -3.16982564 289.35177073 36 272 C36 271.67 36 271.34 36 271 C34.0509375 270.814375 34.0509375 270.814375 32.0625 270.625 C29.84765625 270.4140625 29.84765625 270.4140625 28 270 C27.67 269.34 27.34 268.68 27 268 C28.6396875 268.309375 28.6396875 268.309375 30.3125 268.625 C34.0838401 269.40346525 34.0838401 269.40346525 37 267 C36.67 266.34 36.34 265.68 36 265 C35.01 265.33 34.02 265.66 33 266 C32.01 264.35 31.02 262.7 30 261 C29.01 261.33 28.02 261.66 27 262 C27 262.99 27 263.98 27 265 C24.0625 263.8125 24.0625 263.8125 21 262 C20.125 259.3125 20.125 259.3125 20 257 C18.68 257.33 17.36 257.66 16 258 C16.47656412 259.79236067 16.95633498 261.58386897 17.4375 263.375 C17.70433594 264.37273437 17.97117188 265.37046875 18.24609375 266.3984375 C18.90184356 268.95417701 18.90184356 268.95417701 20 271 C19.0925 270.649375 18.185 270.29875 17.25 269.9375 C13.92185574 268.97745839 13.14207656 269.16211292 10 270 C7.75 269.0625 7.75 269.0625 6 268 C6 266.02 6 264.04 6 262 C3.525 262.495 3.525 262.495 1 263 C1.99 267.29 2.98 271.58 4 276 C0 274 0 274 -1.046875 271.6171875 C-1.27890625 270.71226562 -1.5109375 269.80734375 -1.75 268.875 C-1.99234375 267.96492188 -2.2346875 267.05484375 -2.484375 266.1171875 C-2.65453125 265.41851562 -2.8246875 264.71984375 -3 264 C-4.65 263.67 -6.3 263.34 -8 263 C-8 262.34 -8 261.68 -8 261 C-6.68 260.67 -5.36 260.34 -4 260 C-4.20625 259.236875 -4.4125 258.47375 -4.625 257.6875 C-5 255 -5 255 -3 252 C-4.27230469 252.2165625 -5.54460937 252.433125 -6.85546875 252.65625 C-31.08044727 256.57708266 -54.35362199 256.05822621 -77.71484375 248.0859375 C-80.48630479 247.1698065 -83.12842873 246.49040117 -86 246 C-85.23206957 249.76070605 -84.19747632 252.83085048 -82 256 C-77.83617674 258.14688309 -73.56716654 259.05695961 -69 260 C-67.56109798 260.41179891 -66.12330691 260.82753594 -64.6875 261.25 C-60.62091145 262.07710276 -57.13481146 262.14767184 -53 262 C-52.67 263.32 -52.34 264.64 -52 266 C-52.99 266 -53.98 266 -55 266 C-55.66 270.29 -56.32 274.58 -57 279 C-57.66 279 -58.32 279 -59 279 C-59 274.38 -59 269.76 -59 265 C-60.32 265 -61.64 265 -63 265 C-63.99 268.63 -64.98 272.26 -66 276 C-66.66 276 -67.32 276 -68 276 C-68.66 275.34 -69.32 274.68 -70 274 C-73.58343976 273.83322718 -73.58343976 273.83322718 -77 274 C-77 269.71 -77 265.42 -77 261 C-78.32 261.33 -79.64 261.66 -81 262 C-82.14293555 264.31315325 -82.14293555 264.31315325 -82.75 267.0625 C-83.11351563 268.44115234 -83.11351563 268.44115234 -83.484375 269.84765625 C-83.65453125 270.55792969 -83.8246875 271.26820313 -84 272 C-86 271 -86 271 -87 268 C-89.50447516 266.78130071 -89.50447516 266.78130071 -92 266 C-92.6875 262.6875 -92.6875 262.6875 -93 259 C-91.5625 257.0625 -91.5625 257.0625 -90 256 C-91.65 255.67 -93.3 255.34 -95 255 C-96.65 258.3 -98.3 261.6 -100 265 C-100.66 264.01 -101.32 263.02 -102 262 C-101.25 259.9140625 -101.25 259.9140625 -100 257.625 C-98.13212571 253.96570221 -98.13212571 253.96570221 -98.75 249.9375 C-99.1625 249.298125 -99.575 248.65875 -100 248 C-98.515 248.495 -98.515 248.495 -97 249 C-96.62875 248.071875 -96.62875 248.071875 -96.25 247.125 C-94.77952822 244.62519797 -93.58596924 244.16683978 -91 243 C-92.00417969 242.46632812 -93.00835937 241.93265625 -94.04296875 241.3828125 C-105.98878533 234.91962371 -116.49164649 227.76533603 -126 218 C-126.66 218 -127.32 218 -128 218 C-128.2578125 217.41992188 -128.515625 216.83984375 -128.78125 216.2421875 C-130.10378606 213.80906026 -131.59500053 212.13149534 -133.5 210.125 C-137.58389316 205.65429 -141.03218829 200.88517692 -144.41015625 195.87353516 C-147.33503207 191.62362368 -150.34803933 188.32598034 -155 186 C-162.31721427 185.23900972 -167.81014 186.27080137 -172.8125 192 Z M50 224 C49.42894531 224.4846875 48.85789063 224.969375 48.26953125 225.46875 C33.61927689 237.58024804 17.29071681 246.03405496 -1 251 C-1 251.33 -1 251.66 -1 252 C-0.40832031 252.12117188 0.18335938 252.24234375 0.79296875 252.3671875 C1.58316406 252.53476562 2.37335938 252.70234375 3.1875 252.875 C3.96480469 253.03742188 4.74210938 253.19984375 5.54296875 253.3671875 C8 254 8 254 10.2734375 255.27734375 C14.5752118 256.41749883 17.54044821 254.54700695 21.4375 252.6875 C22.2315625 252.32011719 23.025625 251.95273437 23.84375 251.57421875 C35.28116008 246.14007207 45.29082671 239.11124137 55 231 C55.91652344 230.30519531 56.83304688 229.61039063 57.77734375 228.89453125 C58.87755859 227.95673828 58.87755859 227.95673828 60 227 C60 226.34 60 225.68 60 225 C58.72125 225.20625 57.4425 225.4125 56.125 225.625 C53.9453125 225.9765625 53.9453125 225.9765625 52 226 C51.34 225.34 50.68 224.68 50 224 Z M62 229 C61.67 229.66 61.34 230.32 61 231 C61.99 231.495 61.99 231.495 63 232 C63.625 234.0625 63.625 234.0625 64 236 C64.66 235.34 65.32 234.68 66 234 C65.91428339 231.90708843 65.91428339 231.90708843 65 230 C64.01 229.67 63.02 229.34 62 229 Z M43 244 C43 244.66 43 245.32 43 246 C44.94999129 245.80528889 44.94999129 245.80528889 47 245 C48.28436734 243.0162233 48.28436734 243.0162233 49 241 C46.20091867 241 45.07277627 242.2035939 43 244 Z M-93 248 C-93.33 248.99 -93.66 249.98 -94 251 C-91.03 251.99 -88.06 252.98 -85 254 C-86.68377223 250.10540926 -86.68377223 250.10540926 -89 248 C-90.32 248 -91.64 248 -93 248 Z M40 251 C39.67 252.32 39.34 253.64 39 255 C39.99 254.34 40.98 253.68 42 253 C42 252.34 42 251.68 42 251 C41.34 251 40.68 251 40 251 Z M25 254 C24.67 254.99 24.34 255.98 24 257 C24.66 257.66 25.32 258.32 26 259 C26.66 258.67 27.32 258.34 28 258 C27.67 256.68 27.34 255.36 27 254 C26.34 254 25.68 254 25 254 Z M0 255 C-0.66 256.32 -1.32 257.64 -2 259 C-0.05649404 260.2537118 -0.05649404 260.2537118 1.9453125 259.44140625 C2.66460937 259.15136719 3.38390625 258.86132812 4.125 258.5625 C4.84945312 258.27503906 5.57390625 257.98757813 6.3203125 257.69140625 C6.87460938 257.46324219 7.42890625 257.23507812 8 257 C6.10244856 254.65026182 6.10244856 254.65026182 2.875 254.875 C1.92625 254.91625 0.9775 254.9575 0 255 Z M-91 261 C-91 261.99 -91 262.98 -91 264 C-89.35 264 -87.7 264 -86 264 C-86.66 263.01 -87.32 262.02 -88 261 C-88.99 261 -89.98 261 -91 261 Z M-68 264 C-68.33 264.99 -68.66 265.98 -69 267 C-69.99 267.495 -69.99 267.495 -71 268 C-70.67 268.99 -70.34 269.98 -70 271 C-71.65 270.67 -73.3 270.34 -75 270 C-75 270.66 -75 271.32 -75 272 C-73.02 272 -71.04 272 -69 272 C-67.57055055 269.64561267 -66.91338739 268.51967567 -67.375 265.75 C-67.58125 265.1725 -67.7875 264.595 -68 264 Z M8 265 C8.33 265.99 8.66 266.98 9 268 C10.32 267.34 11.64 266.68 13 266 C13 265.34 13 264.68 13 264 C10.0745356 263.7763932 10.0745356 263.7763932 8 265 Z M-75 266 C-71 267 -71 267 -71 267 Z " fill="#010101" transform="translate(182,6)"/>
<path d="M0 0 C7.85163535 2.87385292 14.68899621 6.56018774 21.2578125 11.77734375 C22.2890625 12.58171875 23.3203125 13.38609375 24.3828125 14.21484375 C25.3109375 14.98828125 25.3109375 14.98828125 26.2578125 15.77734375 C29.29062174 14.39879409 31.55409671 12.75865302 34.0703125 10.58984375 C46.72720051 0.68355395 64.10314953 -5.0253225 80.2578125 -3.22265625 C81.2478125 -2.72765625 81.2478125 -2.72765625 82.2578125 -2.22265625 C82.2578125 27.14734375 82.2578125 56.51734375 82.2578125 86.77734375 C74.6678125 87.76734375 67.0778125 88.75734375 59.2578125 89.77734375 C46.60958022 93.29602491 36.32945697 97.15675893 28.2578125 107.77734375 C24.81643623 107.21967937 23.59475652 106.32387303 21.5703125 103.52734375 C18.08406838 99.25472878 14.19586065 97.10446989 9.2578125 94.77734375 C8.56558594 94.41769531 7.87335938 94.05804688 7.16015625 93.6875 C-3.74870785 88.58900091 -16.94744609 88.25168643 -28.7421875 86.77734375 C-28.7421875 57.40734375 -28.7421875 28.03734375 -28.7421875 -2.22265625 C-20.90531722 -6.14109139 -7.83825795 -2.56093396 0 0 Z M-24.7421875 0.77734375 C-24.7421875 28.16734375 -24.7421875 55.55734375 -24.7421875 83.77734375 C-18.4721875 84.43734375 -12.2021875 85.09734375 -5.7421875 85.77734375 C4.43503258 88.2165122 13.38582052 91.24026843 21.90649414 97.36743164 C22.84882652 98.04401573 22.84882652 98.04401573 23.81019592 98.73426819 C24.28790939 99.07848312 24.76562286 99.42269806 25.2578125 99.77734375 C25.46676064 89.61558849 25.626466 79.45434783 25.72412205 69.2908783 C25.77100442 64.57091152 25.83454065 59.85241903 25.93676758 55.13330078 C26.03488842 50.57496772 26.08843744 46.01804817 26.11170769 41.45874023 C26.12827975 39.72348787 26.16064442 37.98830904 26.20938301 36.25366211 C26.71702978 26.66841481 26.71702978 26.66841481 23.35690308 17.99438477 C21.08445027 15.93162691 18.88840159 14.34750974 16.2578125 12.77734375 C15.44836685 12.21756836 14.6389212 11.65779297 13.8049469 11.08105469 C2.42238797 3.26671485 -11.21986907 0.77734375 -24.7421875 0.77734375 Z M68.2578125 0.77734375 C67.75272042 3.02620613 67.25392071 5.27648244 66.7578125 7.52734375 C66.479375 8.7803125 66.2009375 10.03328125 65.9140625 11.32421875 C65.13334347 14.8464662 65.13334347 14.8464662 65.2578125 18.77734375 C70.58819637 18.24430536 73.24148332 17.28550834 78.2578125 14.77734375 C78.2578125 10.15734375 78.2578125 5.53734375 78.2578125 0.77734375 C74.9578125 0.77734375 71.6578125 0.77734375 68.2578125 0.77734375 Z M29.2578125 20.77734375 C27.56113043 22.47402582 28.13812257 24.58866393 28.13339233 26.85174561 C28.13698761 27.57750793 28.14058289 28.30327026 28.14428711 29.05102539 C28.14414108 29.81194992 28.14399506 30.57287445 28.1438446 31.3568573 C28.14454388 33.88376673 28.15233695 36.41060337 28.16015625 38.9375 C28.16202038 40.68484965 28.1634443 42.43219982 28.16444397 44.17955017 C28.16826957 48.78766309 28.17810021 53.3957447 28.18914795 58.00384521 C28.19936116 62.70242896 28.2039414 67.40101774 28.20898438 72.09960938 C28.21972245 81.32553462 28.23679937 90.55143659 28.2578125 99.77734375 C29.18376221 99.15263184 30.10971191 98.52791992 31.0637207 97.88427734 C35.08554045 95.23134572 39.2975086 93.01161827 43.55078125 90.75390625 C48.49247323 87.14568671 49.72653588 81.75983097 51.4453125 76.08984375 C51.78949219 74.97222656 52.13367188 73.85460937 52.48828125 72.703125 C53.38499559 69.79800461 53.38499559 69.79800461 53.2578125 66.77734375 C49.2978125 67.76734375 45.3378125 68.75734375 41.2578125 69.77734375 C42.06001221 68.22623901 42.06001221 68.22623901 42.87841797 66.64379883 C44.86738367 62.79652011 46.85332898 58.94768903 48.83837891 55.09838867 C49.69693388 53.43455382 50.55630065 51.77113759 51.41650391 50.1081543 C52.65482278 47.71383254 53.8901871 45.31800637 55.125 42.921875 C55.50840546 42.18209915 55.89181091 41.4423233 56.28683472 40.68013 C58.12795406 37.10060466 59.85011151 33.55608029 61.2578125 29.77734375 C58.2878125 30.10734375 55.3178125 30.43734375 52.2578125 30.77734375 C54.27049904 24.25728151 56.79124581 18.38136543 59.9453125 12.33984375 C60.76528121 10.75965599 61.58186889 9.17770768 62.39453125 7.59375 C62.93146606 6.56423218 62.93146606 6.56423218 63.47924805 5.51391602 C64.3941792 3.79036638 64.3941792 3.79036638 64.2578125 1.77734375 C51.01516407 1.77734375 38.1512704 12.08517811 29.2578125 20.77734375 Z M77.2578125 18.77734375 C74.83166384 23.58029825 72.41072408 28.38582793 69.99462891 33.19384766 C69.17152188 34.82998816 68.34698199 36.46540863 67.52099609 38.10009766 C66.33576372 40.44637398 65.1556648 42.7951696 63.9765625 45.14453125 C63.60470825 45.87791718 63.232854 46.6113031 62.84973145 47.36691284 C60.92814808 50.89804737 60.92814808 50.89804737 60.2578125 54.77734375 C65.2078125 54.28234375 65.2078125 54.28234375 70.2578125 53.77734375 C68.32048743 57.38942883 66.38155149 61.00064406 64.44116211 64.61108398 C63.78219719 65.83773774 63.12366187 67.06462238 62.46557617 68.29174805 C61.51596056 70.06230312 60.56463716 71.83194191 59.61328125 73.6015625 C59.04246826 74.66463623 58.47165527 75.72770996 57.88354492 76.82299805 C56.82010242 78.75552811 55.70939474 80.66297226 54.5480957 82.53833008 C53.09137922 84.63545598 53.09137922 84.63545598 53.2578125 86.77734375 C53.97324219 86.64457031 54.68867188 86.51179688 55.42578125 86.375 C56.92044922 86.11009766 56.92044922 86.11009766 58.4453125 85.83984375 C59.88970703 85.57880859 59.88970703 85.57880859 61.36328125 85.3125 C66.96535091 84.54270708 72.61975673 84.21104035 78.2578125 83.77734375 C78.2578125 62.32734375 78.2578125 40.87734375 78.2578125 18.77734375 C77.9278125 18.77734375 77.5978125 18.77734375 77.2578125 18.77734375 Z " fill="#010101" transform="translate(119.7421875,134.22265625)"/>
<path d="M0 0 C1.64582629 1.39241706 3.27018942 2.81050271 4.875 4.25 C5.78121094 5.06210937 6.68742188 5.87421875 7.62109375 6.7109375 C24.78649652 22.94783721 35.18717395 45.74225908 36.078125 69.40625 C36.46191403 90.77132072 31.03142458 108.98929236 20 127.375 C18.13981463 132.12880705 18.00356751 136.59353646 19.6015625 141.46484375 C22.08842935 146.89349212 25.16470611 150.04542494 30.6875 152.5 C31.409375 152.7475 32.13125 152.995 32.875 153.25 C32.07232271 160.6846339 25.77217901 165.07641307 20.2734375 169.55419922 C-6.23533021 190.22883944 -38.5235229 199.20920956 -71.98046875 195.82421875 C-100.25997233 192.27707733 -123.56877203 179.67505034 -144.125 160.25 C-144.71152344 159.73179687 -145.29804688 159.21359375 -145.90234375 158.6796875 C-147.125 157.25 -147.125 157.25 -147.125 154.25 C-146.34576172 153.92128906 -146.34576172 153.92128906 -145.55078125 153.5859375 C-139.26907246 150.72955975 -135.84138356 147.76078456 -132.75 141.4375 C-131.11724103 133.11042924 -133.54014453 128.07079055 -137.89453125 120.9074707 C-149.93228613 100.77378826 -153.06155539 76.06962541 -148.125 53.25 C-141.98530628 29.69748108 -128.33189585 7.99112568 -107.125 -4.75 C-73.02419877 -23.81849872 -31.94222511 -24.67574736 0 0 Z M-114.125 5.25 C-114.93839844 5.91773437 -115.75179687 6.58546875 -116.58984375 7.2734375 C-132.81275179 21.12165176 -143.42328799 41.06157337 -146.125 62.25 C-147.40813113 84.53245041 -144.65440635 104.66271811 -131.9375 123.48828125 C-128.36553146 128.93091435 -128.40192629 134.8936776 -129.125 141.25 C-131.18848946 148.07687166 -134.27238406 152.14231308 -140.55078125 155.5078125 C-141.07027344 155.75273437 -141.58976562 155.99765625 -142.125 156.25 C-125.46987203 178.13959677 -96.37406848 188.79815487 -70.06347656 192.54345703 C-45.1006463 195.61876838 -19.78397389 189.70809784 1.875 177.25 C2.87917969 176.6725 3.88335937 176.095 4.91796875 175.5 C13.85427636 170.05502837 22.58861256 163.70410725 28.875 155.25 C27.5446875 154.693125 27.5446875 154.693125 26.1875 154.125 C20.16055959 150.7135243 17.18338466 146.19753498 15.3359375 139.64453125 C13.62825154 130.77324742 16.88102852 125.09814686 21.28637695 117.69262695 C33.17740064 97.31375041 35.57847727 73.05933434 29.80566406 50.31567383 C22.88244444 25.87289541 5.67549706 6.55170905 -16.125 -5.75 C-26.95591534 -11.63230747 -39.78602956 -15.20943558 -52.125 -15.75 C-52.87394531 -15.78996094 -53.62289062 -15.82992187 -54.39453125 -15.87109375 C-76.20555362 -16.47010406 -97.53573005 -8.77153947 -114.125 5.25 Z " fill="#010101" transform="translate(204.125,57.75)"/>
<path d="M0 0 C4 4.82051282 4 4.82051282 4 8 C4.60328125 7.96519531 5.2065625 7.93039063 5.828125 7.89453125 C9.36644251 7.77468501 12.23818445 7.70270613 15.5625 9 C17.43828491 11.6097877 17.4781714 13.86006362 17.3515625 17.01953125 C17 19 17 19 15.3125 21.5625 C14.879375 22.366875 14.44625 23.17125 14 24 C14.94280904 26.3570226 15.94647157 28.69034152 17 31 C16.78714133 34.76050325 16.67666871 36.32333129 14 39 C10.16600177 39.76679965 7.74023976 40.24674659 4 39 C3.731875 39.763125 3.46375 40.52625 3.1875 41.3125 C1.39145907 45.3772242 1.39145907 45.3772242 -1 47 C-3.875 47.5 -3.875 47.5 -7 47 C-10.44391324 44.24486941 -12.14785121 42.28823264 -13 38 C-14.03060547 38.05220703 -14.03060547 38.05220703 -15.08203125 38.10546875 C-15.98308594 38.13253906 -16.88414063 38.15960938 -17.8125 38.1875 C-19.15248047 38.23970703 -19.15248047 38.23970703 -20.51953125 38.29296875 C-23 38 -23 38 -24.80078125 36.6953125 C-26.82098702 33.83938643 -26.3444935 31.38751938 -26 28 C-25.46375 26.948125 -24.9275 25.89625 -24.375 24.8125 C-23.92125 23.884375 -23.4675 22.95625 -23 22 C-23.80767387 20.05003955 -23.80767387 20.05003955 -25 18 C-25.44588006 14.57926389 -25.85484223 11.18817694 -23.7578125 8.2734375 C-21.55432685 6.67713456 -20.2573885 6.7011335 -17.5625 6.6875 C-15.17911897 6.57765777 -15.17911897 6.57765777 -13 6 C-10.50459629 3.13384514 -10.50459629 3.13384514 -9 0 C-5.74048884 -1.62975558 -3.45293671 -0.89300087 0 0 Z M-6 2 C-8.20142332 4.4390706 -8.20142332 4.4390706 -10 7 C-9.67 7.66 -9.34 8.32 -9 9 C-3.85898644 10.15681364 -3.85898644 10.15681364 1 9 C-0.07401108 6.08482708 -0.77810176 4.22189824 -3 2 C-3.99 2 -4.98 2 -6 2 Z M-21 10 C-22.32575833 11.64539322 -22.32575833 11.64539322 -23 14 C-21.71677553 17.23394361 -21.71677553 17.23394361 -20 20 C-17.4251788 18.99083177 -17.4251788 18.99083177 -15 17 C-14.10407917 13.40080577 -14.10407917 13.40080577 -14 10 C-16.31 10 -18.62 10 -21 10 Z M-11 11 C-11.33 11.99 -11.66 12.98 -12 14 C-10.68 13.34 -9.36 12.68 -8 12 C-8.99 11.67 -9.98 11.34 -11 11 Z M5 11 C6.23290969 16.76481498 6.23290969 16.76481498 10 21 C10.66 21 11.32 21 12 21 C12.99 18.69 13.98 16.38 15 14 C13.94369738 12.35429841 13.94369738 12.35429841 12 11 C8.37464024 10.7496423 8.37464024 10.7496423 5 11 Z M0 12 C0.33 12.66 0.66 13.32 1 14 C1.66 14 2.32 14 3 14 C3 13.34 3 12.68 3 12 C2.01 12 1.02 12 0 12 Z M-8.5625 15.875 C-9.18253906 16.22304687 -9.80257812 16.57109375 -10.44140625 16.9296875 C-12.16628939 17.92911904 -12.16628939 17.92911904 -13 20 C-13.66758785 23.37248616 -13.66758785 23.37248616 -13 27 C-10.98731953 29.33017373 -8.81707317 30.77671979 -6 32 C-3.34872531 32.16977494 -3.34872531 32.16977494 -1 31 C-0.071875 30.67 0.85625 30.34 1.8125 30 C4.35276176 27.67747497 4.47894946 26.95504946 4.75 23.625 C4.6103032 20.7705287 4.40360649 19.45484151 2.4921875 17.30078125 C-1.7614314 14.19510553 -3.86160124 13.18596814 -8.5625 15.875 Z M-16 21 C-16 22.32 -16 23.64 -16 25 C-15.67 23.68 -15.34 22.36 -15 21 C-15.33 21 -15.66 21 -16 21 Z M7 22 C8 25 8 25 8 25 Z M-20 25 C-22.09749995 27.35968744 -22.96905704 28.54616994 -23.1875 31.75 C-23.125625 32.4925 -23.06375 33.235 -23 34 C-18.46167247 35.81602517 -18.46167247 35.81602517 -14 35 C-15.04491454 29.97757619 -15.04491454 29.97757619 -18.125 26.0625 C-18.74375 25.711875 -19.3625 25.36125 -20 25 Z M10 26 C6.32769295 29.07999946 5.43197635 31.2482602 5 36 C7.3015411 36.77802187 7.3015411 36.77802187 10 37 C12.30504044 35.66846734 12.30504044 35.66846734 14 34 C13.50168276 30.31245243 12.89932357 28.39509338 10 26 Z M-12 32 C-12 32.66 -12 33.32 -12 34 C-11.01 33.67 -10.02 33.34 -9 33 C-9.99 32.67 -10.98 32.34 -12 32 Z M2 32 C1.01 32.495 1.01 32.495 0 33 C0 33.66 0 34.32 0 35 C0.99 34.67 1.98 34.34 3 34 C2.67 33.34 2.34 32.68 2 32 Z M-10 37 C-8.92598892 39.91517292 -8.22189824 41.77810176 -6 44 C-3.44539786 44.07272562 -3.44539786 44.07272562 -1 43 C0.37466625 40.52363988 0.37466625 40.52363988 1 38 C-2.92397944 35.75772603 -5.62403856 35.54134619 -10 37 Z " fill="#010101" transform="translate(125,159)"/>
<path d="M0 0 C6.68738928 4.82569849 10.98788031 11.93278641 12.59765625 19.9921875 C13.66952947 29.67600762 12.43874467 36.98035677 6.69140625 44.9296875 C0.90408378 52.01347713 -5.98944409 56.27637042 -15.1796875 57.3828125 C-24.95263008 57.72773989 -32.18092977 55.56035783 -39.8125 49.4375 C-46.69716715 42.78476312 -49.46091707 35.60265607 -49.6875 26.0625 C-49.56221947 16.50167681 -46.16051215 8.6785768 -39.3125 2 C-27.31778378 -7.30899228 -12.92748419 -7.38178083 0 0 Z M-39 7 C-44.64701493 14.7877134 -46.9917034 21.38598648 -46 31 C-43.57339643 39.99425887 -39.20073512 46.26569554 -31.09765625 50.9609375 C-24.50140274 54.22835544 -18.16518571 54.65600213 -11 53 C-2.20973186 49.87543566 3.10446454 45.01252121 7.375 36.8125 C10.21630198 29.80475099 10.21630198 22.19524901 7.375 15.1875 C3.09832922 6.97569811 -2.21002074 2.14670855 -11 -1 C-21.34733386 -3.60290075 -31.55332965 -0.669911 -39 7 Z " fill="#010101" transform="translate(166,74)"/>
<path d="M0 0 C4.29040651 7.5848258 5.5760899 14.98474566 3.33984375 23.51953125 C0.69557214 30.23895738 -3.94010774 35.76811385 -10.5 38.9375 C-14.19827777 40.06019147 -17.16080871 40.07769792 -21 40 C-21.16236745 37.41414795 -21.28095486 34.83848046 -21.375 32.25 C-21.42527344 31.52039063 -21.47554687 30.79078125 -21.52734375 30.0390625 C-21.5859375 27.890625 -21.5859375 27.890625 -21 24 C-18.0234375 21.7734375 -18.0234375 21.7734375 -15 20 C-14.22520301 17.77795409 -14.22520301 17.77795409 -14.25 15.375 C-13.33424051 8.75789914 -7.14643687 0 0 0 Z " fill="#010101" transform="translate(169,85)"/>
<path d="M0 0 C5.71230386 2.47794003 11.51080245 7.47455274 13.95703125 13.265625 C14.38851017 15.1599227 14.70209363 17.08015896 15 19 C16.72226496 22.24849977 16.72226496 22.24849977 20 23 C20 28.61 20 34.22 20 40 C11.17092697 39.72409147 6.75897122 36.86056503 0.6875 30.625 C-3.49057424 24.1257734 -5.09738614 17.7163573 -4 10 C-2.90838808 6.54086612 -1.5597369 3.27266225 0 0 Z " fill="#010101" transform="translate(126,85)"/>
<path d="M0 0 C2.46915669 1.66193239 4.24080465 3.07542416 6.25 5.1875 C4.7876608 8.5096347 2.94193394 10.88063983 0.4375 13.5 C-0.22894531 14.21800781 -0.89539063 14.93601562 -1.58203125 15.67578125 C-3.75 17.1875 -3.75 17.1875 -6.35546875 16.96484375 C-7.14566406 16.70832031 -7.93585938 16.45179687 -8.75 16.1875 C-11.21823091 15.36045995 -11.21823091 15.36045995 -13.75 15.1875 C-14.595625 15.703125 -15.44125 16.21875 -16.3125 16.75 C-18.75 18.1875 -18.75 18.1875 -20.75 17.75 C-23.52720016 15.58031238 -25.53323791 12.91582257 -27.75 10.1875 C-28.74 9.5275 -29.73 8.8675 -30.75 8.1875 C-30.36256127 5.73197615 -30.05405354 4.47674068 -28.2265625 2.73828125 C-27.61554688 2.32964844 -27.00453125 1.92101562 -26.375 1.5 C-25.76914063 1.08363281 -25.16328125 0.66726562 -24.5390625 0.23828125 C-18.06852259 -3.56210136 -6.68183291 -3.27222472 0 0 Z " fill="#010101" transform="translate(159.75,76.8125)"/>
<path d="M0 0 C2.97 0.99 5.94 1.98 9 3 C8.67 4.32 8.34 5.64 8 7 C7.01 7 6.02 7 5 7 C4.67 8.65 4.34 10.3 4 12 C6.97 12.495 6.97 12.495 10 13 C10.82638376 10.10765685 11 8.11257569 11 5 C14.34373475 5.55728913 17.03312999 6.35173889 20 8 C19 11 19 11 17 12 C15.63119925 14.58886966 15.63119925 14.58886966 14.375 17.6875 C13.92898437 18.72261719 13.48296875 19.75773437 13.0234375 20.82421875 C11.97339367 24.08256086 11.80640996 26.60198542 12 30 C9.03 29.01 6.06 28.02 3 27 C3.33 25.68 3.66 24.36 4 23 C4.66 23 5.32 23 6 23 C6.33 21.35 6.66 19.7 7 18 C5.35 17.67 3.7 17.34 2 17 C1.01 19.475 1.01 19.475 0 22 C0.66 22.33 1.32 22.66 2 23 C1.67 23.66 1.34 24.32 1 25 C-2.73487777 24.5020163 -4.81237635 24.12508244 -8 22 C-7.505 20.515 -7.505 20.515 -7 19 C-6.34 19 -5.68 19 -5 19 C-4.80664062 18.40832031 -4.61328125 17.81664063 -4.4140625 17.20703125 C-2.16172507 10.37196765 -2.16172507 10.37196765 -0.75 7.125 C0.29417988 4.85930528 0.29417988 4.85930528 -1 2 C-0.67 1.34 -0.34 0.68 0 0 Z " fill="#010101" transform="translate(183,14)"/>
<path d="M0 0 C-0.5647301 3.90829085 -2.42131971 5.89920223 -5.0625 8.75 C-5.79597656 9.54921875 -6.52945313 10.3484375 -7.28515625 11.171875 C-7.85105469 11.77515625 -8.41695312 12.3784375 -9 13 C-6.69 12.34 -4.38 11.68 -2 11 C-2 10.34 -2 9.68 -2 9 C-0.68 9 0.64 9 2 9 C3.25664978 11.90600261 4 13.79604584 4 17 C2.72125 17.12375 1.4425 17.2475 0.125 17.375 C-4.98644221 17.93571465 -9.97606474 18.91969659 -15 20 C-15 20.99 -15 21.98 -15 23 C-16.32 23 -17.64 23 -19 23 C-19.80859375 19.83984375 -19.80859375 19.83984375 -20 16 C-17.91015625 13.12890625 -17.91015625 13.12890625 -15.0625 10.5625 C-14.12535156 9.69753906 -13.18820313 8.83257812 -12.22265625 7.94140625 C-11.48917969 7.30074219 -10.75570312 6.66007813 -10 6 C-11.31571603 6.2547514 -12.62760376 6.52934141 -13.9375 6.8125 C-14.66839844 6.96332031 -15.39929688 7.11414063 -16.15234375 7.26953125 C-16.76207031 7.51058594 -17.37179688 7.75164062 -18 8 C-18.33 8.99 -18.66 9.98 -19 11 C-19.99 11 -20.98 11 -22 11 C-23.25664978 8.09399739 -24 6.20395416 -24 3 C-21.57519542 2.32105472 -19.25325884 1.89947715 -16.75 1.5625 C-13.97801465 1.1467022 -11.54766722 0.62637248 -8.875 -0.125 C-5.2880577 -0.93495471 -3.44176362 -1.07555113 0 0 Z " fill="#010101" transform="translate(50,153)"/>
<path d="M0 0 C3 0.875 3 0.875 4.375 2.9375 C5.78822334 5.05338553 5.78822334 5.05338553 7.88671875 5.171875 C10.83116815 5.19302006 13.33206694 5.20896653 16 3.875 C16.66 4.205 17.32 4.535 18 4.875 C17.34 6.855 16.68 8.835 16 10.875 C12.7 11.205 9.4 11.535 6 11.875 C6.99 12.535 7.98 13.195 9 13.875 C9.99 13.545 10.98 13.215 12 12.875 C12.66 13.535 13.32 14.195 14 14.875 C13.01 17.185 12.02 19.495 11 21.875 C9.68 21.875 8.36 21.875 7 21.875 C7 20.885 7 19.895 7 18.875 C6.13375 18.606875 5.2675 18.33875 4.375 18.0625 C1 16.875 1 16.875 -2.0625 15.25 C-5.03977643 13.85638125 -6.76912247 13.58992257 -10 13.875 C-10.91662607 11.38222424 -11.17798858 10.28874538 -10.109375 7.8046875 C-9.66078125 7.12664062 -9.2121875 6.44859375 -8.75 5.75 C-8.09257813 4.72519531 -8.09257813 4.72519531 -7.421875 3.6796875 C-5.14480394 0.78955885 -3.69788118 -0.15407838 0 0 Z M-3 4.875 C-3.99 6.36 -3.99 6.36 -5 7.875 C-1.535 9.36 -1.535 9.36 2 10.875 C1.67 9.225 1.34 7.575 1 5.875 C-0.32 5.545 -1.64 5.215 -3 4.875 Z " fill="#010101" transform="translate(44,73.125)"/>
<path d="M0 0 C4.61467005 2.72685049 7.56977078 5.04607121 10 10 C10.7982961 14.61056725 10.66526494 17.88330528 8.25 21.9375 C4.42953345 25.43959434 1.51139639 26.62357484 -3.8359375 26.5234375 C-9.19548155 25.22708569 -13.06032435 20.40951348 -16 16 C-15.34 15.649375 -14.68 15.29875 -14 14.9375 C-7.88942242 10.99108531 -2.70909333 6.94205166 0 0 Z M3 8 C-2.445 12.95 -2.445 12.95 -8 18 C-7.67 18.99 -7.34 19.98 -7 21 C-4.79561167 21.87754191 -4.79561167 21.87754191 -2 22 C1.10626672 20.35550585 3.3346429 18.89678566 5.4375 16.0625 C6.17081031 13.37369553 5.85401356 11.63320849 5 9 C4.34 8.67 3.68 8.34 3 8 Z " fill="#010101" transform="translate(228,40)"/>
<path d="M0 0 C3 1 3 1 4.34765625 2.39453125 C6.4923422 4.47837504 8.71792421 5.45870931 11.4375 6.6875 C12.38496094 7.12449219 13.33242187 7.56148437 14.30859375 8.01171875 C17.14795678 9.22979664 17.14795678 9.22979664 21 9 C19.44184004 14.41814712 18.01544136 18.85502827 14 23 C10.52817697 24.73591152 6.79591036 24.46571673 3 24 C-0.18500291 22.37854397 -2.22111096 21.02671736 -4.375 18.1875 C-5.9435261 12.69765866 -5.21767836 8.95894033 -2.5 4.0625 C-1.68093012 2.69965873 -0.85227178 1.34232806 0 0 Z M0 8 C-1.22514289 9.03876234 -1.22514289 9.03876234 -1.4375 11.25 C-0.89781886 14.64228143 0.49874344 16.00899742 3.20703125 18.0546875 C6.19628328 19.63072016 8.72534903 19.4408184 12 19 C12.66 18.34 13.32 17.68 14 17 C14 16.01 14 15.02 14 14 C12.04414675 12.99515796 10.08523763 11.99626195 8.125 11 C7.03445312 10.443125 5.94390625 9.88625 4.8203125 9.3125 C2.21624918 7.85935906 2.21624918 7.85935906 0 8 Z " fill="#010101" transform="translate(240,168)"/>
<path d="M0 0 C0.99 0 1.98 0 3 0 C3 0.66 3 1.32 3 2 C8.28 2.33 13.56 2.66 19 3 C19 2.34 19 1.68 19 1 C20.32 1 21.64 1 23 1 C23.3690205 11.55808656 23.3690205 11.55808656 21 16 C17.26513121 16.5745952 13.78706732 17 10 17 C9.030625 17.268125 8.06125 17.53625 7.0625 17.8125 C4 18 4 18 1.125 16.3125 C-2.01245589 11.42175993 -1.60896443 6.6720687 -1 1 C-0.67 0.67 -0.34 0.34 0 0 Z M3 7 C3.33 8.65 3.66 10.3 4 12 C5.65 11.67 7.3 11.34 9 11 C9.33 10.01 9.66 9.02 10 8 C7.69 7.67 5.38 7.34 3 7 Z M13 8 C13.66 9.32 14.32 10.64 15 12 C16.32 11.67 17.64 11.34 19 11 C19 10.01 19 9.02 19 8 C17.02 8 15.04 8 13 8 Z " fill="#010101" transform="translate(247,128)"/>
<path d="M0 0 C4.84295209 1.54679839 8.24625379 4.33984256 12.125 7.5 C13.35605456 8.49047425 14.58780055 9.48008987 15.8203125 10.46875 C16.35930176 10.90638672 16.89829102 11.34402344 17.45361328 11.79492188 C18.91615173 12.93465818 20.45722134 13.97148089 22 15 C21.67 16.32 21.34 17.64 21 19 C20.01 18.67 19.02 18.34 18 18 C17.7525 18.721875 17.505 19.44375 17.25 20.1875 C15.87730408 23.27606582 14.27646704 25.51011418 12 28 C11.34 28 10.68 28 10 28 C9.34765625 26.2265625 9.34765625 26.2265625 9 24 C9.99609375 22.1484375 9.99609375 22.1484375 11.4375 20.375 C13.52963362 17.98715144 13.52963362 17.98715144 14 15 C10.95106884 16.12923376 9.35458426 17.6343658 7.375 20.125 C6.59125 21.07375 5.8075 22.0225 5 23 C4.34 23 3.68 23 3 23 C2.02998318 19.60494113 2 16.52935443 2 13 C1.01 13 0.02 13 -1 13 C-0.67 14.98 -0.34 16.96 0 19 C-0.99 19 -1.98 19 -3 19 C-3 15.37 -3 11.74 -3 8 C-1.35 7.67 0.3 7.34 2 7 C1.34 6.01 0.68 5.02 0 4 C0 2.68 0 1.36 0 0 Z M5 9 C5 10.32 5 11.64 5 13 C6.32 12.34 7.64 11.68 9 11 C7.68 10.34 6.36 9.68 5 9 Z " fill="#010101" transform="translate(51,233)"/>
<path d="M0 0 C2.5 1.5 2.5 1.5 4 4 C4.79016814 8.97805926 4.79016814 8.97805926 4 12 C1.03079312 15.18646592 -1.98101737 17.02321933 -5.75 19.125 C-9.17363258 20.77997556 -9.17363258 20.77997556 -11 24 C-11.99 24 -12.98 24 -14 24 C-17 18.375 -17 18.375 -17 15 C-16.01 14.938125 -15.02 14.87625 -14 14.8125 C-9.47144264 14.16424025 -5.30626248 12.18603476 -2 9 C-2 7.68 -2 6.36 -2 5 C-7.30903657 5.51795479 -10.63548484 7.06234556 -15 10 C-16.4662686 12.08451836 -16.4662686 12.08451836 -17 14 C-17.99 13.67 -18.98 13.34 -20 13 C-21.6875 9.4375 -21.6875 9.4375 -23 6 C-21.515 5.62875 -21.515 5.62875 -20 5.25 C-17.10050772 4.44490959 -14.68618433 3.34010689 -12.0625 1.875 C-7.76852794 -0.34285742 -4.80485521 -0.64064736 0 0 Z " fill="#010101" transform="translate(57,176)"/>
<path d="M0 0 C3.25 0.25 3.25 0.25 5.625 1.75 C8.39320336 3.33183049 9.30844294 3.40763042 12.375 3.3125 C16.25 3.25 16.25 3.25 19.25 5.25 C18.8047115 10.52315333 18.16626837 15.26770224 16.25 20.25 C14.3125 19.875 14.3125 19.875 12.25 19.25 C11.92 18.59 11.59 17.93 11.25 17.25 C8.89328449 16.45180463 6.58786625 15.75852775 4.1875 15.125 C3.52427734 14.94324219 2.86105469 14.76148437 2.17773438 14.57421875 C0.53708521 14.12569596 -1.10622449 13.68692614 -2.75 13.25 C-2.75 13.91 -2.75 14.57 -2.75 15.25 C-4.07 14.92 -5.39 14.59 -6.75 14.25 C-6.27525225 12.10318469 -5.79508251 9.95756772 -5.3125 7.8125 C-5.04566406 6.61753906 -4.77882813 5.42257813 -4.50390625 4.19140625 C-3.51143387 0.31922126 -3.51143387 0.31922126 0 0 Z M0.25 4.25 C-0.08 5.57 -0.41 6.89 -0.75 8.25 C1.725 8.745 1.725 8.745 4.25 9.25 C4.58 8.26 4.91 7.27 5.25 6.25 C4.59 6.25 3.93 6.25 3.25 6.25 C3.25 5.59 3.25 4.93 3.25 4.25 C2.26 4.25 1.27 4.25 0.25 4.25 Z M11.25 5.25 C9.14767656 8.1184413 9.14767656 8.1184413 8.25 11.25 C11.22 11.745 11.22 11.745 14.25 12.25 C14.58 10.93 14.91 9.61 15.25 8.25 C13.93 7.26 12.61 6.27 11.25 5.25 Z " fill="#010101" transform="translate(32.75,93.75)"/>
<path d="M0 0 C0.99 0 1.98 0 3 0 C3 0.66 3 1.32 3 2 C3.53367187 2.17015625 4.06734375 2.3403125 4.6171875 2.515625 C7.08703994 3.31896801 9.54336731 4.15710843 12 5 C13.38058594 5.45246094 13.38058594 5.45246094 14.7890625 5.9140625 C15.68367188 6.23117188 16.57828125 6.54828125 17.5 6.875 C18.75296875 7.30425781 18.75296875 7.30425781 20.03125 7.7421875 C22 9 22 9 22.78125 11.6328125 C22.8534375 12.41398437 22.925625 13.19515625 23 14 C16.01424576 16.28953836 9.35012956 18.42351925 2 19 C2 19.66 2 20.32 2 21 C1.01 21 0.02 21 -1 21 C-1 17.7 -1 14.4 -1 11 C0.32 11 1.64 11 3 11 C3 11.66 3 12.32 3 13 C5.97 12.34 8.94 11.68 12 11 C7.72816203 8.15210802 4.07638947 8 -1 8 C-0.67 5.36 -0.34 2.72 0 0 Z " fill="#010101" transform="translate(25,114)"/>
<path d="M0 0 C1.00160156 0.0721875 2.00320312 0.144375 3.03515625 0.21875 C3.69515625 1.20875 4.35515625 2.19875 5.03515625 3.21875 C4.04515625 3.71375 4.04515625 3.71375 3.03515625 4.21875 C3.03515625 8.50875 3.03515625 12.79875 3.03515625 17.21875 C1.71515625 16.55875 0.39515625 15.89875 -0.96484375 15.21875 C-1.57421875 12.6171875 -1.57421875 12.6171875 -1.71484375 9.59375 C-1.7715625 8.59085937 -1.82828125 7.58796875 -1.88671875 6.5546875 C-1.9125 5.78382813 -1.93828125 5.01296875 -1.96484375 4.21875 C-3.28484375 4.21875 -4.60484375 4.21875 -5.96484375 4.21875 C-5.96484375 8.83875 -5.96484375 13.45875 -5.96484375 18.21875 C-7.28484375 17.55875 -8.60484375 16.89875 -9.96484375 16.21875 C-9.96484375 15.55875 -9.96484375 14.89875 -9.96484375 14.21875 C-11.07859375 14.115625 -12.19234375 14.0125 -13.33984375 13.90625 C-15.13421875 13.5659375 -15.13421875 13.5659375 -16.96484375 13.21875 C-18.96484375 10.21875 -18.96484375 10.21875 -18.96484375 7.21875 C-17.46484375 5.53125 -17.46484375 5.53125 -15.96484375 4.21875 C-17.61484375 4.21875 -19.26484375 4.21875 -20.96484375 4.21875 C-21.29484375 3.22875 -21.62484375 2.23875 -21.96484375 1.21875 C-19.110804 1.04962172 -16.25664373 0.88337837 -13.40234375 0.71875 C-12.20254883 0.64720703 -12.20254883 0.64720703 -10.97851562 0.57421875 C-7.31988335 0.36515405 -3.6590905 0.20188086 0 0 Z M-12.96484375 4.21875 C-12.63484375 5.86875 -12.30484375 7.51875 -11.96484375 9.21875 C-12.62484375 9.21875 -13.28484375 9.21875 -13.96484375 9.21875 C-13.63484375 9.87875 -13.30484375 10.53875 -12.96484375 11.21875 C-11.97484375 10.55875 -10.98484375 9.89875 -9.96484375 9.21875 C-9.71453398 6.63494823 -9.71453398 6.63494823 -9.96484375 4.21875 C-10.95484375 4.21875 -11.94484375 4.21875 -12.96484375 4.21875 Z " fill="#010101" transform="translate(160.96484375,268.78125)"/>
<path d="M0 0 C-0.165 0.94875 -0.33 1.8975 -0.5 2.875 C-1.7565627 11.13044322 -1.7565627 11.13044322 0 19 C0.99 19.33 1.98 19.66 3 20 C3.33 20.99 3.66 21.98 4 23 C0.7 24.32 -2.6 25.64 -6 27 C-6.33 25.68 -6.66 24.36 -7 23 C-6.34 23 -5.68 23 -5 23 C-8.38119373 17.31959454 -12.56024915 12.14658362 -19 10 C-18.75390625 8.109375 -18.75390625 8.109375 -18 6 C-16.15234375 4.953125 -16.15234375 4.953125 -13.9375 4.25 C-12.83728516 3.88648438 -12.83728516 3.88648438 -11.71484375 3.515625 C-11.14894531 3.34546875 -10.58304688 3.1753125 -10 3 C-9.71125 3.969375 -9.4225 4.93875 -9.125 5.9375 C-8.35785318 9.10664203 -8.35785318 9.10664203 -6 10 C-6 8.68 -6 7.36 -6 6 C-6.66 6 -7.32 6 -8 6 C-8 4.68 -8 3.36 -8 2 C-4.91190305 0.23537317 -3.76687864 0 0 0 Z " fill="#010101" transform="translate(108,16)"/>
<path d="M0 0 C2.91517292 1.07401108 4.77810176 1.77810176 7 4 C6.01 4.99 5.02 5.98 4 7 C3.01 6.67 2.02 6.34 1 6 C1 6.99 1 7.98 1 9 C1.721875 8.855625 2.44375 8.71125 3.1875 8.5625 C4.115625 8.376875 5.04375 8.19125 6 8 C6.825 7.7525 7.65 7.505 8.5 7.25 C11.87804831 6.91219517 13.33276795 7.99957596 16 10 C17.45147903 12.90295805 17.37239025 14.77261779 17 18 C15.52631484 20.27751344 13.88564762 22.02007 12 24 C9.0625 23.1875 9.0625 23.1875 6 22 C5.67 21.01 5.34 20.02 5 19 C5.33 18.34 5.66 17.68 6 17 C7.65 17.33 9.3 17.66 11 18 C11.33 16.68 11.66 15.36 12 14 C10.948125 14.2165625 10.948125 14.2165625 9.875 14.4375 C8.451875 14.7159375 8.451875 14.7159375 7 15 C6.01 15.2475 5.02 15.495 4 15.75 C1 16 1 16 -1.875 15.0625 C-4 13 -4 13 -4.5625 9.125 C-4.33016301 5.06285002 -2.89407973 2.89407973 0 0 Z " fill="#010101" transform="translate(52,53)"/>
<path d="M0 0 C4.95 0.33 9.9 0.66 15 1 C15 6.94784745 14.45577613 11.38486351 13 17 C12.01 17 11.02 17 10 17 C10 16.34 10 15.68 10 15 C8.68 15 7.36 15 6 15 C6 16.65 6 18.3 6 20 C6.99 20 7.98 20 9 20 C9 21.32 9 22.64 9 24 C7.741875 24.020625 6.48375 24.04125 5.1875 24.0625 C4.47980469 24.07410156 3.77210938 24.08570312 3.04296875 24.09765625 C1 24 1 24 -2 23 C-1.505 21.515 -1.505 21.515 -1 20 C-0.34 20 0.32 20 1 20 C0.98839844 19.43152344 0.97679687 18.86304687 0.96484375 18.27734375 C0.90776806 13.39329516 1.18043228 8.81496035 2 4 C1.34 4 0.68 4 0 4 C0 2.68 0 1.36 0 0 Z M7 4 C7 6.31 7 8.62 7 11 C7.99 11 8.98 11 10 11 C10 10.34 10 9.68 10 9 C10.66 8.67 11.32 8.34 12 8 C11.67 7.01 11.34 6.02 11 5 C8.98491642 4.26676204 8.98491642 4.26676204 7 4 Z " fill="#010101" transform="translate(150,9)"/>
<path d="M0 0 C1.65 1.32 3.3 2.64 5 4 C4.67 5.32 4.34 6.64 4 8 C1.525 7.505 1.525 7.505 -1 7 C0.06825188 8.82142946 1.15515702 10.63192912 2.25 12.4375 C2.85328125 13.44683594 3.4565625 14.45617187 4.078125 15.49609375 C6.1742 18.2269557 6.79236118 18.40370817 10 19 C10.33 19.99 10.66 20.98 11 22 C9.90554162 22.86657116 8.79902219 23.71792724 7.6875 24.5625 C7.07261719 25.03816406 6.45773438 25.51382813 5.82421875 26.00390625 C5.22222656 26.33261719 4.62023437 26.66132812 4 27 C3.01 26.67 2.02 26.34 1 26 C1.0721875 25.28457031 1.144375 24.56914063 1.21875 23.83203125 C0.93909221 20.21146161 -0.3432338 18.57602617 -2.5 15.6875 C-3.1496875 14.80449219 -3.799375 13.92148437 -4.46875 13.01171875 C-4.9740625 12.34785156 -5.479375 11.68398438 -6 11 C-7.2236068 13.0745356 -7.2236068 13.0745356 -7 16 C-9.375 15.8125 -9.375 15.8125 -12 15 C-12.66 13.35 -13.32 11.7 -14 10 C-9.38 6.7 -4.76 3.4 0 0 Z " fill="#010101" transform="translate(83,26)"/>
<path d="M0 0 C1.9375 0.75 1.9375 0.75 4 2 C4.12890625 2.59941406 4.2578125 3.19882812 4.390625 3.81640625 C5.20333684 6.72862368 6.67478353 8.07358001 8.8125 10.1875 C9.49957031 10.88230469 10.18664062 11.57710937 10.89453125 12.29296875 C13.01297069 14.01051613 14.33735732 14.59910773 17 15 C16.45773019 18.79588866 14.79872437 20.47211993 12 23 C11.01 22.67 10.02 22.34 9 22 C8.31681717 20.34003511 7.65247643 18.67227292 7 17 C5.22536943 14.75522579 5.22536943 14.75522579 3.125 12.75 C2.10792969 11.72132812 2.10792969 11.72132812 1.0703125 10.671875 C-1.02805287 8.97734598 -2.36577827 8.40163022 -5 8 C-4.45773019 4.20411134 -2.79872437 2.52788007 0 0 Z " fill="#010101" transform="translate(63,41)"/>
<path d="M0 0 C1.32 0.33 2.64 0.66 4 1 C4 3.64 4 6.28 4 9 C-2.27 9 -8.54 9 -15 9 C-15 9.66 -15 10.32 -15 11 C-16.32 11.33 -17.64 11.66 -19 12 C-19.33 8.7 -19.66 5.4 -20 2 C-18.68 2 -17.36 2 -16 2 C-16 2.66 -16 3.32 -16 4 C-13.51911645 3.71937057 -11.04090815 3.42609401 -8.5625 3.125 C-7.85544922 3.04636719 -7.14839844 2.96773437 -6.41992188 2.88671875 C-4.60326568 2.66072324 -2.79937478 2.33699273 -1 2 C-0.67 1.34 -0.34 0.68 0 0 Z " fill="#010101" transform="translate(44,138)"/>
<path d="M0 0 C1 1 1 1 1.1875 3.9375 C1 7 1 7 -1 9 C-4.5 9.3125 -4.5 9.3125 -8 9 C-10 6 -10 6 -9.875 2.9375 C-9 0 -9 0 -7.25 -1.5 C-4.24023466 -2.16883674 -2.69957379 -1.38626762 0 0 Z " fill="#010101" transform="translate(152,96)"/>
<path d="M0 0 C10.55808656 -0.18451025 10.55808656 -0.18451025 15 1 C15 2.98 15 4.96 15 7 C10.05 6.67 5.1 6.34 0 6 C0 4.02 0 2.04 0 0 Z " fill="#010101" transform="translate(95,94)"/>
<path d="M0 0 C0 1.98 0 3.96 0 6 C-3.3 6.33 -6.6 6.66 -10 7 C-10 5.02 -10 3.04 -10 1 C-6.59437148 0.22157062 -3.49234244 -0.09978121 0 0 Z " fill="#010101" transform="translate(224,114)"/>
<path d="M0 0 C3.3 0 6.6 0 10 0 C10 1.98 10 3.96 10 6 C6.7 6 3.4 6 0 6 C0 4.02 0 2.04 0 0 Z " fill="#010101" transform="translate(77,85)"/>
<path d="M0 0 C3.3 0 6.6 0 10 0 C10 1.98 10 3.96 10 6 C6.7 6 3.4 6 0 6 C0 4.02 0 2.04 0 0 Z " fill="#010101" transform="translate(95,73)"/>
<path d="M0 0 C2.97 0 5.94 0 9 0 C9 1.98 9 3.96 9 6 C6.03 6 3.06 6 0 6 C0 4.02 0 2.04 0 0 Z " fill="#010101" transform="translate(82,106)"/>
<path d="M0 0 C2.64 0.33 5.28 0.66 8 1 C8.33 2.98 8.66 4.96 9 7 C6.03 6.67 3.06 6.34 0 6 C0 4.02 0 2.04 0 0 Z " fill="#010101" transform="translate(206,93)"/>
<path d="M0 0 C1.98 0 3.96 0 6 0 C6.33 1.98 6.66 3.96 7 6 C5.35 6.66 3.7 7.32 2 8 C0.4375 6.8125 0.4375 6.8125 -1 5 C-0.6875 2.3125 -0.6875 2.3125 0 0 Z " fill="#010101" transform="translate(117,179)"/>
<path d="M0 0 C0.625 2.375 0.625 2.375 1 5 C0.34 5.66 -0.32 6.32 -1 7 C-3.625 6.625 -3.625 6.625 -6 6 C-6 4.02 -6 2.04 -6 0 C-3.50907189 -1.24546405 -2.58919267 -0.7767578 0 0 Z " fill="#010101" transform="translate(30,214)"/>
<path d="M0 0 C1.98 0 3.96 0 6 0 C6.625 2.375 6.625 2.375 7 5 C6.34 5.66 5.68 6.32 5 7 C2.375 6.625 2.375 6.625 0 6 C-1 3 -1 3 0 0 Z " fill="#010101" transform="translate(32,225)"/>
<path d="M0 0 C1.66611905 -0.042721 3.33382885 -0.04063832 5 0 C6 1 6 1 6.0625 3.5625 C6.041875 4.366875 6.02125 5.17125 6 6 C3.625 6.625 3.625 6.625 1 7 C0.34 6.34 -0.32 5.68 -1 5 C-0.625 2.375 -0.625 2.375 0 0 Z " fill="#010101" transform="translate(257,222)"/>
<path d="M0 0 C1.66611905 -0.042721 3.33382885 -0.04063832 5 0 C6 1 6 1 6.125 3.5 C6 6 6 6 5 7 C3.33382885 7.04063832 1.66611905 7.042721 0 7 C-1.125 2.25 -1.125 2.25 0 0 Z " fill="#010101" transform="translate(265,211)"/>
<path d="M0 0 C0.38218767 1.65614657 0.71395102 3.32457024 1 5 C0 6 0 6 -3.0625 6.0625 C-4.5165625 6.0315625 -4.5165625 6.0315625 -6 6 C-6 4.02 -6 2.04 -6 0 C-3.50907189 -1.24546405 -2.58919267 -0.7767578 0 0 Z " fill="#010101" transform="translate(278,201)"/>
<path d="M0 0 C1.98 0 3.96 0 6 0 C6.625 1.8125 6.625 1.8125 7 4 C6.01 5.485 6.01 5.485 5 7 C3.35 6.67 1.7 6.34 0 6 C-1 3 -1 3 0 0 Z " fill="#010101" transform="translate(17,203)"/>
<path d="M0 0 C1.65 0 3.3 0 5 0 C5.38218767 1.65614657 5.71395102 3.32457024 6 5 C5 6 5 6 2.4375 6.0625 C1.2309375 6.0315625 1.2309375 6.0315625 0 6 C0 4.02 0 2.04 0 0 Z " fill="#010101" transform="translate(228,114)"/>
<path d="M0 0 C0.99 0.33 1.98 0.66 3 1 C3 2.98 3 4.96 3 7 C1.35 7 -0.3 7 -2 7 C-2 5.02 -2 3.04 -2 1 C-1.34 0.67 -0.68 0.34 0 0 Z " fill="#010101" transform="translate(189,104)"/>
<path d="M0 0 C1.65 0 3.3 0 5 0 C5 1.98 5 3.96 5 6 C3.35 6 1.7 6 0 6 C0 4.02 0 2.04 0 0 Z " fill="#010101" transform="translate(67,119)"/>
<path d="M0 0 C1.65 0 3.3 0 5 0 C5 1.98 5 3.96 5 6 C3.35 6 1.7 6 0 6 C0 4.02 0 2.04 0 0 Z " fill="#010101" transform="translate(180,117)"/>
<path d="M0 0 C1.65 0 3.3 0 5 0 C5 1.98 5 3.96 5 6 C3.35 6 1.7 6 0 6 C0 4.02 0 2.04 0 0 Z " fill="#010101" transform="translate(202,116)"/>
<path d="M0 0 C1.65 0 3.3 0 5 0 C5 1.98 5 3.96 5 6 C3.35 6 1.7 6 0 6 C0 4.02 0 2.04 0 0 Z " fill="#010101" transform="translate(211,104)"/>
<path d="M0 0 C1.65 0 3.3 0 5 0 C5 1.98 5 3.96 5 6 C3.35 6 1.7 6 0 6 C0 4.02 0 2.04 0 0 Z " fill="#010101" transform="translate(82,96)"/>
<path d="M0 0 C1.65 0 3.3 0 5 0 C5 1.98 5 3.96 5 6 C3.35 6 1.7 6 0 6 C0 4.02 0 2.04 0 0 Z " fill="#010101" transform="translate(74,96)"/>
<path d="M0 0 C1.65 0 3.3 0 5 0 C5 1.98 5 3.96 5 6 C3.35 6 1.7 6 0 6 C0 4.02 0 2.04 0 0 Z " fill="#010101" transform="translate(199,94)"/>
<path d="M0 0 C1.65 0 3.3 0 5 0 C5 1.98 5 3.96 5 6 C3.35 6 1.7 6 0 6 C0 4.02 0 2.04 0 0 Z " fill="#020202" transform="translate(183,93)"/>
<path d="M0 0 C1.65 0 3.3 0 5 0 C5 1.98 5 3.96 5 6 C3.35 6 1.7 6 0 6 C0 4.02 0 2.04 0 0 Z " fill="#010101" transform="translate(182,83)"/>
<path d="M0 0 C1.65 0 3.3 0 5 0 C5 1.98 5 3.96 5 6 C3.35 6 1.7 6 0 6 C0 4.02 0 2.04 0 0 Z " fill="#010101" transform="translate(97,83)"/>
<path d="M0 0 C1.65 0 3.3 0 5 0 C5 1.98 5 3.96 5 6 C3.35 6 1.7 6 0 6 C0 4.02 0 2.04 0 0 Z " fill="#010101" transform="translate(112,73)"/>
<path d="M0 0 C1.32 0 2.64 0 4 0 C4 1.98 4 3.96 4 6 C2.35 6 0.7 6 -1 6 C-1.042721 4.33388095 -1.04063832 2.66617115 -1 1 C-0.67 0.67 -0.34 0.34 0 0 Z " fill="#010101" transform="translate(217,94)"/>
<path d="M0 0 C1.32 0 2.64 0 4 0 C4 2.31 4 4.62 4 7 C2.68 7 1.36 7 0 7 C0 4.69 0 2.38 0 0 Z " fill="#010101" transform="translate(82,73)"/>
<path d="M0 0 C1.32 0 2.64 0 4 0 C4 1.98 4 3.96 4 6 C2.68 6 1.36 6 0 6 C0 4.02 0 2.04 0 0 Z " fill="#010101" transform="translate(94,118)"/>
<path d="M0 0 C1.32 0 2.64 0 4 0 C4 1.98 4 3.96 4 6 C2.68 6 1.36 6 0 6 C0 4.02 0 2.04 0 0 Z " fill="#020202" transform="translate(113,117)"/>
<path d="M0 0 C1.32 0 2.64 0 4 0 C4 1.98 4 3.96 4 6 C2.68 6 1.36 6 0 6 C0 4.02 0 2.04 0 0 Z " fill="#020202" transform="translate(105,117)"/>
<path d="M0 0 C1.32 0 2.64 0 4 0 C4 1.98 4 3.96 4 6 C2.68 6 1.36 6 0 6 C0 4.02 0 2.04 0 0 Z " fill="#020202" transform="translate(197,104)"/>
<path d="M0 0 C1.32 0 2.64 0 4 0 C4 1.98 4 3.96 4 6 C2.68 6 1.36 6 0 6 C0 4.02 0 2.04 0 0 Z " fill="#020202" transform="translate(64,103)"/>
<path d="M0 0 C1.32 0 2.64 0 4 0 C4 1.98 4 3.96 4 6 C2.68 6 1.36 6 0 6 C0 4.02 0 2.04 0 0 Z " fill="#020202" transform="translate(194,94)"/>
<path d="M0 0 C1.32 0 2.64 0 4 0 C4 1.98 4 3.96 4 6 C2.68 6 1.36 6 0 6 C0 4.02 0 2.04 0 0 Z " fill="#010101" transform="translate(92,84)"/>
<path d="M0 0 C1.32 0 2.64 0 4 0 C4 1.98 4 3.96 4 6 C2.68 6 1.36 6 0 6 C0 4.02 0 2.04 0 0 Z " fill="#020202" transform="translate(206,83)"/>
<path d="M0 0 C1.32 0 2.64 0 4 0 C4 1.98 4 3.96 4 6 C2.68 6 1.36 6 0 6 C0 4.02 0 2.04 0 0 Z " fill="#010101" transform="translate(191,82)"/>
<path d="M0 0 C1.32 0 2.64 0 4 0 C4 1.98 4 3.96 4 6 C2.68 6 1.36 6 0 6 C0 4.02 0 2.04 0 0 Z " fill="#020202" transform="translate(202,71)"/>
<path d="M0 0 C1.32 0 2.64 0 4 0 C4 1.98 4 3.96 4 6 C2.68 6 1.36 6 0 6 C0 4.02 0 2.04 0 0 Z " fill="#010101" transform="translate(190,71)"/>
<path d="M0 0 C1.32 0 2.64 0 4 0 C4 1.98 4 3.96 4 6 C2.68 6 1.36 6 0 6 C0 4.02 0 2.04 0 0 Z " fill="#020202" transform="translate(176,71)"/>
<path d="M0 0 C1.32 0 2.64 0 4 0 C4 1.98 4 3.96 4 6 C2.68 6 1.36 6 0 6 C0 4.02 0 2.04 0 0 Z " fill="#010101" transform="translate(171,71)"/>
</svg>
